# xmcd
#
# Track frame offsets: 
#        300
#        20900
#        43352
#        64899
#        96326
#        123722
#        147796
#        174795
#        197741
#
# Disc length: 3238 seconds
#
# Revision: 0
# Processed by: cddbd v1.5.2PL0 Copyright (c) Steve Scherf et al.
# Submitted via: ExactAudioCopy v1.0b1
#
DISCID=890ca209
DTITLE=Debbie Davies - Debbie Davies' Blues Blast
DYEAR=2007
DGENRE=Contemporary Blues
TTITLE0=A.C. Strut
TTITLE1=My Time After Awhile
TTITLE2=Sittin' and Cryin'
TTITLE3=Movin' and Groovin'
TTITLE4=Crawling King Snake
TTITLE5=Howlin' For My Darlin'
TTITLE6=Like You Was Gone
TTITLE7=Where The Blues Come To Die
TTITLE8=Sonoma Sunset
EXTD=
EXTT0=
EXTT1=
EXTT2=
EXTT3=
EXTT4=
EXTT5=
EXTT6=
EXTT7=
EXTT8=
PLAYORDER=
